<svg xmlns="http://www.w3.org/2000/svg"  viewBox="0 0 64 64" width="64px" height="64px" baseProfile="basic"><linearGradient id="pjqQf7KDvr_-2xjZixxVha" x1="32" x2="32" y1="9" y2="55" gradientUnits="userSpaceOnUse"><stop offset="0" stop-color="#1a6dff"/><stop offset="1" stop-color="#c822ff"/></linearGradient><path fill="url(#pjqQf7KDvr_-2xjZixxVha)" d="M49,55H15c-3.309,0-6-2.691-6-6V15c0-3.309,2.691-6,6-6h34c3.309,0,6,2.691,6,6v34	C55,52.309,52.309,55,49,55z M15,11c-2.206,0-4,1.794-4,4v34c0,2.206,1.794,4,4,4h34c2.206,0,4-1.794,4-4V15c0-2.206-1.794-4-4-4H15	z"/><linearGradient id="pjqQf7KDvr_-2xjZixxVhb" x1="32" x2="32" y1="13" y2="51" gradientUnits="userSpaceOnUse"><stop offset="0" stop-color="#6dc7ff"/><stop offset="1" stop-color="#e6abff"/></linearGradient><path fill="url(#pjqQf7KDvr_-2xjZixxVhb)" d="M49,13H15c-1.1,0-2,0.9-2,2v34c0,1.1,0.9,2,2,2h34c1.1,0,2-0.9,2-2V15C51,13.9,50.1,13,49,13z M39.032,21.151c-0.19-1.549-1.211-2.543-2.354-2.543c-4.901,0-11.93,10.995-10.953,18.994c0.381,3.118,2.293,6.728,6.214,6.728	c1.307,0,2.692-0.37,3.924-0.985c2.15-1.099,3.11-2.033,4.588-3.392c0.854-0.806,1.99,0.105,0.411,1.573	c-0.963,1.081-2.103,2.137-3.466,3.01c-2.011,1.269-4.253,2.294-6.908,2.294c-2.452,0-4.532-1.313-5.683-2.379	c-1.707-1.6-2.611-3.98-2.876-6.154c-0.838-6.852,3.332-15.836,9.795-19.773c1.483-0.903,3.144-1.354,4.654-1.354	c3.106,0,5.422,2.222,5.747,4.876c0.292,2.392-0.664,4.458-3.316,5.796c-1.354,0.685-2.024,0.652-2.236,0.326	c-0.141-0.218-0.061-0.587,0.212-0.814C39.278,25.271,39.326,23.562,39.032,21.151z"/></svg>